PathFileType	4	(X/Y/Z)	C:/Users/beibeiliu/ov580/test_trc\sequence.19_training_dense_right.trc
DataRate	CameraRate	NumFrames	NumMarkers	Units	OrigDataRate	OrigDataStartFrame	OrigNumFrames
120	120	12	19	mm	120	173	344
Frame#	Time	ThumbCMC			ThumbMCP			ThumbIP			ThumbTip			IndexMCP			IndexPIP			IndexTip			MiddleMCP			MiddlePIP			MiddleTip			RingMCP			RingPIP			RingTip			PinkyMCP			PinkyPIP			PinkyTip			BackHand1			BackHand2			BackHand3	
		X0	Y0	Z0	X1	Y1	Z1	X2	Y2	Z2	X3	Y3	Z3	X4	Y4	Z4	X5	Y5	Z5	X6	Y6	Z6	X7	Y7	Z7	X8	Y8	Z8	X9	Y9	Z9	X10	Y10	Z10	X11	Y11	Z11	X12	Y12	Z12	X13	Y13	Z13	X14	Y14	Z14	X15	Y15	Z15	X16	Y16	Z16	X17	Y17	Z17	X18	Y18	Z18	
172	1.43333	221.225	10.6556	43.7575	202.459	-9.48907	37.7916	199.092	-34.8299	27.5685	215.27	-55.4122	26.1082	211.093	-41.7242	7.93698	204.79	-61.0157	30.6211	214.316	-41.4043	53.5974	226.607	-53.616	17.2015	221.438	-58.9451	47.0707	232.554	-31.5529	54.3509	244.543	-53.7973	31.5682	239.481	-48.447	55.6075	242.498	-19.0881	51.9966	263.972	-48.6971	40.34	252.137	-34.9589	61.213	250.307	-9.9917	50.7497	263.879	-10.5243	18.2844	269.116	12.3574	32.7723	245.93	12.3814	23.5486	
173	1.44167	227.459	15.1153	50.0942	206.799	-3.6371	41.1394	201.712	-27.276	28.0619	216.457	-50.9405	25.2198	208.277	-35.9652	7.74198	202.523	-56.7536	24.389	210.814	-46.495	52.7781	226.421	-49.5324	13.0024	216.152	-61.7672	38.6276	227.376	-35.6163	55.8454	242.231	-51.3718	27.3732	233.199	-48.7696	52.1497	243.749	-21.1237	52.4847	260.174	-49.7631	38.6932	246.547	-40.7345	58.1633	248.271	-12.5664	54.9387	265.321	-7.86635	23.4822	275.835	13.7427	37.2489	245.063	16.2753	27.6861	
174	1.45	229.476	17.8001	55.4269	208.201	-3.45443	42.5887	203.642	-22.1104	33.2458	213.998	-48.3598	25.8871	208.214	-29.2842	7.56425	197.329	-49.6965	21.6065	204.283	-44.4202	52.6703	225.405	-43.2981	10.2275	212.743	-60.7984	29.5333	218.169	-41.0709	57.0407	239.61	-50.3953	23.5608	230.424	-49.9551	51.805	243.696	-25.6539	54.3291	254.36	-51.0827	36.3881	243.351	-44.8872	56.8533	247.838	-17.5782	53.5384	266.952	-7.22092	22.7387	280.492	9.79854	41.4622	251.117	16.9163	32.8068	
175	1.45833	230.968	16.4177	57.0534	208.36	-5.11262	47.6944	202.197	-25.7939	35.9264	215.707	-45.3187	32.0536	209.008	-23.5517	9.45261	193.991	-45.5071	20.6545	195.782	-40.6002	52.4558	219.164	-37.5894	9.90673	204.312	-57.2773	31.6956	217.419	-45.2273	55.6172	234.298	-50.7186	21.7081	224.018	-52.2695	46.1436	236.39	-31.9325	53.6013	248.244	-55.1358	34.9002	236.357	-47.9358	53.8021	245.104	-24.5876	59.4614	270.039	-9.51556	25.9305	279.067	7.90373	44.4567	254.174	15.7254	31.7561	
176	1.46667	231.848	14.7952	59.5848	208.252	-9.89405	57.4858	200.489	-34.2902	49.7245	216.101	-53.0583	44.641	206.988	-22.4972	9.75796	188.415	-39.6721	21.1352	190.137	-38.3392	49.6596	216.112	-37.7649	7.59351	201.445	-53.0513	27.3418	216.847	-38.0261	50.9818	227.139	-46.5086	17.322	217.089	-53.4339	37.3921	235.534	-32.6746	51.9044	245.072	-53.1077	29.1392	234.771	-56.3766	50.4186	242.475	-33.8105	60.3648	264.57	-13.1075	25.1011	280.798	6.00126	43.6466	253.02	14.2364	34.6977	
177	1.475	231.602	16.014	62.3856	207.225	-11.1471	63.5442	205.431	-35.6678	52.5031	213.547	-59.4684	50.1559	202.086	-16.0548	10.0039	187.987	-37.8724	23.121	188.47	-35.4742	50.0835	216.92	-32.943	8.84378	196.568	-47.5341	28.5498	214.813	-30.5619	51.2194	230.108	-46.1788	14.8122	214.263	-55.157	33.954	228.649	-35.8019	51.0135	244.608	-52.3084	26.8228	226.428	-55.4309	42.3881	237.798	-33.7019	55.5423	266.178	-9.70339	28.5391	282.45	3.17167	43.8898	254.986	17.0951	35.2223	
178	1.48333	235.86	17.0696	62.477	207.379	-9.05171	58.7519	201.598	-32.434	51.0805	218.32	-54.2624	45.5546	205.162	-9.93851	11.7934	186.033	-31.3377	19.7575	184.807	-31.3885	51.0902	214.377	-28.8036	9.83757	194.085	-44.3562	24.6951	211.485	-28.875	52.3038	224.644	-41.0815	12.5498	211.299	-53.8481	29.8102	222.955	-39.125	50.9738	240.779	-45.703	24.9538	222.356	-52.1697	39.5321	235.04	-37.5114	57.1796	263.813	-11.6946	29.9063	282.074	-0.576194	43.6846	257.053	12.9153	36.6695	
179	1.49167	236.007	19.2166	61.9172	211.488	1.5423	51.8121	208.217	-17.1385	39.2564	222.042	-38.4905	31.7458	203.368	-10.7731	11.0772	182.337	-23.6917	21.971	184.633	-31.1276	47.5534	213.136	-23.9422	9.88713	193.67	-42.9139	23.6431	204.246	-36.3051	54.7461	224.662	-40.1297	13.7433	205.522	-46.8299	32.8348	220.255	-35.5106	54.6547	234.43	-44.6704	23.2733	220.198	-49.37	37.8785	236.131	-34.709	55.6582	265.521	-12.2303	30.1982	283.121	-1.67871	47.1442	258.475	16.0486	38.5417	
180	1.5	236.751	17.0842	67.176	208.531	4.01931	56.7891	205.389	-13.0868	35.485	215.646	-35.4101	24.2066	202.577	-2.2852	16.1375	181.681	-24.0412	24.4395	182.961	-28.6541	53.0278	206.629	-19.4296	10.7172	188.961	-37.0365	24.8459	203.414	-36.9964	54.3465	219.037	-30.3268	13.696	205.636	-46.0808	34.8056	219.167	-35.2808	53.3559	235.875	-39.9569	19.4747	219.837	-48.4483	37.2522	236.607	-34.364	52.2754	260.98	-8.43598	23.9836	282.347	3.11284	45.1345	256.186	19.6527	41.1213	
181	1.50833	230.407	11.1314	73.5652	204.344	-4.45425	61.8348	198.253	-16.2082	42.963	209.58	-29.978	22.8377	190.576	3.12754	24.8051	176.62	-22.7445	29.8801	187.755	-31.5751	52.9058	202.015	-11.2685	11.8292	186.931	-36.4288	21.7741	202.313	-36.7252	51.6136	216.664	-25.4678	9.74289	207.592	-44.4466	29.3611	220.499	-30.3001	48.7981	230.126	-36.0607	13.3381	221.761	-44.1514	33.8727	233.413	-30.6313	49.4765	252.184	6.55439	28.2218	271.419	12.6595	43.3423	247.013	21.7533	48.8952	
182	1.51667	226.738	-3.92182	82.9545	208.465	-25.8049	68.8338	194.243	-34.3021	42.8445	201.746	-37.2654	18.2514	177.381	1.4174	36.519	173.3	-25.0548	30.9085	193.467	-35.2081	46.9321	190.178	-0.00931442	20.3658	183.806	-27.9762	14.3188	205.217	-29.2461	43.3362	205.839	-10.6453	13.3581	208.745	-38.2576	22.1905	227.716	-25.0489	39.1406	222.983	-20.5774	7.87394	223.442	-36.2322	25.4638	234.047	-26.6621	43.9029	236.475	19.6012	32.9	263.086	21.7379	48.922	233.635	24.9508	63.4386	
183	1.525	230.084	-16.5401	79.6911	211.13	-35.936	59.4545	195.755	-40.6097	40.6195	192.75	-33.8993	13.9821	176.908	-1.39733	47.7365	168.516	-24.5812	32.8417	192.674	-36.4816	44.3859	182.523	2.40561	27.495	183.643	-23.902	15.4408	206.763	-18.506	38.0688	196.65	-4.42603	14.0205	209.631	-28.3326	16.9213	224.862	-18.5276	35.9557	219.932	-1.14581	8.1977	226.11	-24.6683	15.6527	235.568	-18.5488	40.9912	226.388	25.5199	46.9233	252.888	26.7206	61.6682	225.063	14.998	76.2894	
